<?xml version="1.0" encoding="utf-8"?>
<!-- Generator: Adobe Illustrator 27.5.0, SVG Export Plug-In . SVG Version: 6.00 Build 0)  -->
<svg version="1.1" xmlns="http://www.w3.org/2000/svg" xmlns:xlink="http://www.w3.org/1999/xlink" x="0px" y="0px"
	 viewBox="0 0 750 500" style="enable-background:new 0 0 750 500;" xml:space="preserve">
<g id="BACKGROUND">
	<rect style="fill:#5A1AD8;" width="750" height="500"/>
</g>
<g id="OBJECTS">
	<g>
		<defs>
			<rect id="SVGID_1_" width="750" height="500"/>
		</defs>
		<clipPath id="SVGID_00000129205572502258757390000009620218818877857930_">
			<use xlink:href="#SVGID_1_"  style="overflow:visible;"/>
		</clipPath>
		<path style="clip-path:url(#SVGID_00000129205572502258757390000009620218818877857930_);fill:#4614BB;" d="M-89.197,133.02
			c25.006,35.09,64.316,59.659,106.814,66.759c42.499,7.1,87.661-3.355,122.715-28.41c31.502-22.516,55.319-56.264,90.914-71.507
			c23.866-10.22,50.513-10.965,76.323-13.775c25.81-2.81,52.853-8.545,71.911-26.176c17.661-16.338,25.796-40.546,29.96-64.241
			c4.165-23.696,5.065-48.016,11.513-71.195c6.447-23.179,19.677-45.987,41.292-56.551"/>
		<g style="clip-path:url(#SVGID_00000129205572502258757390000009620218818877857930_);">
			<g style="opacity:0.3;">
				<path d="M249.288,603.648c17.941-12.204,34.748-26.807,45.932-45.401s16.221-41.658,9.937-62.426
					c-6.285-20.768-25.287-38.102-46.97-38.929c-13.375-0.511-26.163,4.871-39.168,8.033c-13.006,3.162-28.134,3.645-38.297-5.064
					c-15.366-13.169-11.561-40.046-26.658-53.522c-13.438-11.995-34.342-7.323-51.397-1.53
					c-17.056,5.793-37.279,11.618-51.852,1.031c-11.35-8.245-14.728-23.668-14.981-37.694c-0.253-14.026,1.702-28.43-2.444-41.832
					c-6.562-21.214-28.867-35.845-51.064-35.213c-22.197,0.632-42.906,15.399-52.498,35.427
					c-9.592,20.027-8.501,150.219,1.065,170.26L249.288,603.648z"/>
			</g>
			<g>
				<path style="fill:#EECB4B;" d="M244.288,598.648c17.941-12.204,34.748-26.807,45.932-45.401s16.221-41.658,9.937-62.426
					c-6.285-20.768-25.287-38.102-46.97-38.929c-13.375-0.511-26.163,4.871-39.168,8.033c-13.006,3.162-28.134,3.645-38.297-5.064
					c-15.366-13.169-11.561-40.046-26.658-53.522c-13.438-11.995-34.342-7.323-51.397-1.53
					c-17.056,5.793-37.279,11.618-51.852,1.031c-11.35-8.245-14.728-23.668-14.981-37.694c-0.253-14.026,1.702-28.43-2.444-41.832
					c-6.562-21.214-28.867-35.845-51.064-35.213c-22.197,0.632-42.906,15.399-52.498,35.427
					c-9.592,20.027-8.501,150.219,1.065,170.26L244.288,598.648z"/>
			</g>
		</g>
		<g style="clip-path:url(#SVGID_00000129205572502258757390000009620218818877857930_);">
			<g style="opacity:0.3;">
				<path d="M483.329,32.339c3.907,22.175,21.223,41.431,42.861,47.66c11.392,3.28,24.08,3.361,33.88,10.031
					c13.464,9.163,16.779,27.233,19.106,43.352c2.327,16.119,6.07,34.223,19.877,42.86c11,6.881,25.201,5.487,37.768,2.258
					c12.566-3.23,25.07-8.092,38.027-7.4c25.331,1.354,45.596,23.357,70.786,26.356c14.371,1.711,29.107-3.182,40.657-11.903
					c11.55-8.721,20.068-21.033,25.764-34.337c19.65-45.896,4.713-101.817-28.823-138.802
					c-33.536-36.985-82.65-56.892-132.03-64.251c-27.745-4.134-56.303-4.642-83.651,1.603
					C527.125-41.002,474.437-18.136,483.329,32.339z"/>
			</g>
			<g>
				<path style="fill:#D93658;" d="M478.329,29.339c3.907,22.175,21.223,41.431,42.861,47.66c11.392,3.28,24.08,3.361,33.88,10.031
					c13.464,9.163,16.779,27.233,19.106,43.352c2.327,16.119,6.07,34.223,19.877,42.86c11,6.881,25.201,5.487,37.768,2.258
					c12.566-3.23,25.07-8.092,38.027-7.4c25.331,1.354,45.596,23.357,70.786,26.356c14.371,1.711,29.107-3.182,40.657-11.903
					c11.55-8.721,20.068-21.033,25.764-34.337c19.65-45.896,4.713-101.817-28.823-138.802
					c-33.536-36.985-82.65-56.892-132.03-64.251c-27.745-4.134-56.303-4.642-83.651,1.603
					C522.125-44.002,469.437-21.136,478.329,29.339z"/>
			</g>
		</g>
		<g style="clip-path:url(#SVGID_00000129205572502258757390000009620218818877857930_);">
			<g style="opacity:0.5;">
				<path d="M958.242,390.041c-22.226-25.498-45.808-50.276-73.966-69.018c-28.158-18.742-61.457-31.204-95.252-29.785
					c-33.795,1.419-67.8,18.222-85.103,47.286c-17.361,29.161-18.762,69.667-46.935,88.59c-14.404,9.674-32.856,11.104-50.132,9.498
					c-17.276-1.606-34.271-5.921-51.61-6.56c-42.806-1.578-85.684,21.222-108.31,57.594c-22.626,36.372-24.127,84.912-3.792,122.612
					h515.1V390.041z"/>
			</g>
			<g>
				<path style="fill:#4614BB;" d="M956.242,393.041c-22.226-25.498-45.808-50.276-73.966-69.018
					c-28.158-18.742-61.457-31.204-95.252-29.785c-33.795,1.419-67.8,18.222-85.103,47.286
					c-17.361,29.161-18.762,69.667-46.935,88.59c-14.404,9.674-32.856,11.104-50.132,9.498c-17.276-1.606-34.271-5.921-51.61-6.56
					c-42.806-1.578-85.684,21.222-108.31,57.594c-22.626,36.372-24.127,84.912-3.792,122.612h515.1V393.041z"/>
			</g>
		</g>
		<g style="clip-path:url(#SVGID_00000129205572502258757390000009620218818877857930_);">
			<g style="opacity:0.3;">
				<path d="M-50.609,40.054c2.827,31.517,18.27,61.725,42.162,82.473c14.609,12.686,32.511,21.965,51.677,24.612
					c19.166,2.648,39.572-1.723,54.868-13.571c23.421-18.141,34.45-52.29,62.654-61.352c31.276-10.05,65.361,17.303,96.808,7.8
					c21.404-6.468,34.676-28.693,38.511-50.721c7.466-42.884-14.629-87.766-49.612-113.669
					c-34.984-25.903-80.776-34.356-124.069-29.831c-34.715,3.628-68.502,15.327-98.228,33.583
					C0.744-66.239-28.005-48.379-39.725-22.67C-48.622-3.153-52.527,18.672-50.609,40.054z"/>
			</g>
			<g>
				<path style="fill:#95BFFD;" d="M-53.609,37.054c2.827,31.517,18.27,61.725,42.162,82.473
					c14.609,12.686,32.511,21.965,51.677,24.612c19.166,2.648,39.572-1.723,54.868-13.571c23.421-18.141,34.45-52.29,62.654-61.352
					c31.276-10.05,65.361,17.303,96.808,7.8c21.404-6.468,34.676-28.693,38.511-50.721c7.466-42.884-14.629-87.766-49.612-113.669
					c-34.984-25.903-80.776-34.356-124.069-29.831c-34.715,3.628-68.502,15.327-98.228,33.583
					C-2.256-69.239-31.005-51.379-42.725-25.67C-51.622-6.153-55.527,15.672-53.609,37.054z"/>
			</g>
		</g>
		
			<path style="clip-path:url(#SVGID_00000129205572502258757390000009620218818877857930_);fill:none;stroke:#290C5F;stroke-width:2;stroke-miterlimit:10;" d="
			M-94.46,348.073c4.211-31.955,32.674-59.022,64.8-61.623c32.126-2.601,64.572,19.534,73.869,50.395
			c4.212,13.98,4.042,28.943,7.736,43.069c3.694,14.125,12.967,28.453,27.292,31.273c18.674,3.677,34.43-13.022,51.865-20.655
			c15.536-6.802,34.134-6.181,49.182,1.641c15.048,7.822,26.242,22.687,29.601,39.311c2.612,12.923,0.97,27.341,8.343,38.271
			c7.577,11.233,22.567,15.079,36.098,14.361c13.531-0.718,26.629-5.054,40.112-6.394c30.036-2.983,61.198,10.119,80.078,33.669
			c18.88,23.55,24.89,56.816,15.445,85.484"/>
		
			<path style="clip-path:url(#SVGID_00000129205572502258757390000009620218818877857930_);fill:none;stroke:#290C5F;stroke-width:2;stroke-miterlimit:10;" d="
			M481.241-54.313c-17.746,19.342-22.937,49.257-12.746,73.448c10.191,24.191,35.224,41.372,61.461,42.185
			c8.691,0.269,17.512-1.095,26.018,0.703c15.754,3.33,27.536,17.079,33.573,32.007c6.037,14.927,7.459,31.236,10.077,47.123
			c2.618,15.888,6.798,32.196,17.165,44.516c14.508,17.24,39.171,23.512,61.464,20.231c22.292-3.281,42.546-14.836,60.647-28.254
			c27.488-20.375,51.393-45.572,70.294-74.094"/>
		<g style="clip-path:url(#SVGID_00000129205572502258757390000009620218818877857930_);">
			<g>
				<path style="fill:#FDFCFB;" d="M360.503,432.331c1.877,0,3.404,1.527,3.404,3.403c0,1.877-1.527,3.403-3.404,3.403
					c-1.877,0-3.403-1.527-3.403-3.403C357.1,433.858,358.626,432.331,360.503,432.331 M360.503,430.447
					c-2.92,0-5.287,2.367-5.287,5.287c0,2.92,2.367,5.287,5.287,5.287c2.92,0,5.287-2.367,5.287-5.287
					C365.79,432.815,363.423,430.447,360.503,430.447L360.503,430.447z"/>
			</g>
			<g>
				<path style="fill:#FDFCFB;" d="M387.894,432.331c1.877,0,3.403,1.527,3.403,3.403c0,1.877-1.527,3.403-3.403,3.403
					c-1.877,0-3.403-1.527-3.403-3.403C384.49,433.858,386.017,432.331,387.894,432.331 M387.894,430.447
					c-2.92,0-5.287,2.367-5.287,5.287c0,2.92,2.367,5.287,5.287,5.287c2.92,0,5.287-2.367,5.287-5.287
					C393.181,432.815,390.814,430.447,387.894,430.447L387.894,430.447z"/>
			</g>
			<g>
				<path style="fill:#FDFCFB;" d="M415.284,432.331c1.877,0,3.403,1.527,3.403,3.403c0,1.877-1.527,3.403-3.403,3.403
					c-1.877,0-3.403-1.527-3.403-3.403C411.881,433.858,413.407,432.331,415.284,432.331 M415.284,430.447
					c-2.92,0-5.287,2.367-5.287,5.287c0,2.92,2.367,5.287,5.287,5.287c2.92,0,5.287-2.367,5.287-5.287
					C420.571,432.815,418.204,430.447,415.284,430.447L415.284,430.447z"/>
			</g>
			<g>
				<path style="fill:#FDFCFB;" d="M442.675,432.331c1.877,0,3.403,1.527,3.403,3.403c0,1.877-1.527,3.403-3.403,3.403
					c-1.877,0-3.403-1.527-3.403-3.403C439.271,433.858,440.798,432.331,442.675,432.331 M442.675,430.447
					c-2.92,0-5.287,2.367-5.287,5.287c0,2.92,2.367,5.287,5.287,5.287c2.92,0,5.287-2.367,5.287-5.287
					C447.962,432.815,445.595,430.447,442.675,430.447L442.675,430.447z"/>
			</g>
			<g>
				<path style="fill:#FDFCFB;" d="M470.065,432.331c1.877,0,3.404,1.527,3.404,3.403c0,1.877-1.527,3.403-3.404,3.403
					c-1.877,0-3.403-1.527-3.403-3.403C466.662,433.858,468.189,432.331,470.065,432.331 M470.065,430.447
					c-2.92,0-5.287,2.367-5.287,5.287c0,2.92,2.367,5.287,5.287,5.287c2.92,0,5.287-2.367,5.287-5.287
					C475.352,432.815,472.985,430.447,470.065,430.447L470.065,430.447z"/>
			</g>
		</g>
		
			<line style="clip-path:url(#SVGID_00000129205572502258757390000009620218818877857930_);fill:none;stroke:#FDFCFB;stroke-miterlimit:10;" x1="35" y1="163.111" x2="151.308" y2="93.445"/>
		
			<line style="clip-path:url(#SVGID_00000129205572502258757390000009620218818877857930_);fill:none;stroke:#FDFCFB;stroke-miterlimit:10;" x1="619.736" y1="330.751" x2="683.913" y2="292.311"/>
		
			<line style="clip-path:url(#SVGID_00000129205572502258757390000009620218818877857930_);fill:none;stroke:#FDFCFB;stroke-miterlimit:10;" x1="183.101" y1="425.157" x2="218.135" y2="404.172"/>
		
			<line style="clip-path:url(#SVGID_00000129205572502258757390000009620218818877857930_);fill:none;stroke:#FDFCFB;stroke-width:2;stroke-miterlimit:10;" x1="130.379" y1="125.024" x2="183.101" y2="93.445"/>
		
			<line style="clip-path:url(#SVGID_00000129205572502258757390000009620218818877857930_);fill:none;stroke:#290C5F;stroke-width:2;stroke-miterlimit:10;" x1="65.24" y1="82.586" x2="117.962" y2="51.007"/>
		
			<line style="clip-path:url(#SVGID_00000129205572502258757390000009620218818877857930_);fill:none;stroke:#FDFCFB;stroke-width:2;stroke-miterlimit:10;" x1="539.519" y1="142.392" x2="559.079" y2="130.675"/>
		
			<line style="clip-path:url(#SVGID_00000129205572502258757390000009620218818877857930_);fill:none;stroke:#290C5F;stroke-width:2;stroke-miterlimit:10;" x1="689.823" y1="311.531" x2="709.383" y2="299.815"/>
		<g style="clip-path:url(#SVGID_00000129205572502258757390000009620218818877857930_);">
			<defs>
				
					<ellipse id="SVGID_00000103223275889905614970000005234156584481384377_" transform="matrix(0.4169 -0.909 0.909 0.4169 -244.8828 310.8002)" cx="119.787" cy="346.255" rx="57.979" ry="57.979"/>
			</defs>
			<clipPath id="SVGID_00000030488142393940067500000004837405674263709058_">
				<use xlink:href="#SVGID_00000103223275889905614970000005234156584481384377_"  style="overflow:visible;"/>
			</clipPath>
			
				<line style="clip-path:url(#SVGID_00000030488142393940067500000004837405674263709058_);fill:none;stroke:#FFFFFF;stroke-width:1.3389;stroke-miterlimit:10;" x1="6.781" y1="344.897" x2="136.323" y2="224.088"/>
			
				<line style="clip-path:url(#SVGID_00000030488142393940067500000004837405674263709058_);fill:none;stroke:#FFFFFF;stroke-width:1.3389;stroke-miterlimit:10;" x1="12.697" y1="351.24" x2="142.239" y2="230.432"/>
			
				<line style="clip-path:url(#SVGID_00000030488142393940067500000004837405674263709058_);fill:none;stroke:#FFFFFF;stroke-width:1.3389;stroke-miterlimit:10;" x1="18.613" y1="357.584" x2="148.155" y2="236.775"/>
			
				<line style="clip-path:url(#SVGID_00000030488142393940067500000004837405674263709058_);fill:none;stroke:#FFFFFF;stroke-width:1.3389;stroke-miterlimit:10;" x1="24.529" y1="363.927" x2="154.071" y2="243.119"/>
			
				<line style="clip-path:url(#SVGID_00000030488142393940067500000004837405674263709058_);fill:none;stroke:#FFFFFF;stroke-width:1.3389;stroke-miterlimit:10;" x1="30.445" y1="370.271" x2="159.987" y2="249.462"/>
			
				<line style="clip-path:url(#SVGID_00000030488142393940067500000004837405674263709058_);fill:none;stroke:#FFFFFF;stroke-width:1.3389;stroke-miterlimit:10;" x1="36.361" y1="376.615" x2="165.903" y2="255.806"/>
			
				<line style="clip-path:url(#SVGID_00000030488142393940067500000004837405674263709058_);fill:none;stroke:#FFFFFF;stroke-width:1.3389;stroke-miterlimit:10;" x1="42.277" y1="382.958" x2="171.819" y2="262.149"/>
			
				<line style="clip-path:url(#SVGID_00000030488142393940067500000004837405674263709058_);fill:none;stroke:#FFFFFF;stroke-width:1.3389;stroke-miterlimit:10;" x1="48.193" y1="389.302" x2="177.735" y2="268.493"/>
			
				<line style="clip-path:url(#SVGID_00000030488142393940067500000004837405674263709058_);fill:none;stroke:#FFFFFF;stroke-width:1.3389;stroke-miterlimit:10;" x1="54.109" y1="395.645" x2="183.651" y2="274.836"/>
			
				<line style="clip-path:url(#SVGID_00000030488142393940067500000004837405674263709058_);fill:none;stroke:#FFFFFF;stroke-width:1.3389;stroke-miterlimit:10;" x1="60.025" y1="401.989" x2="189.566" y2="281.18"/>
			
				<line style="clip-path:url(#SVGID_00000030488142393940067500000004837405674263709058_);fill:none;stroke:#FFFFFF;stroke-width:1.3389;stroke-miterlimit:10;" x1="65.94" y1="408.332" x2="195.482" y2="287.523"/>
			
				<line style="clip-path:url(#SVGID_00000030488142393940067500000004837405674263709058_);fill:none;stroke:#FFFFFF;stroke-width:1.3389;stroke-miterlimit:10;" x1="71.856" y1="414.676" x2="201.398" y2="293.867"/>
			
				<line style="clip-path:url(#SVGID_00000030488142393940067500000004837405674263709058_);fill:none;stroke:#FFFFFF;stroke-width:1.3389;stroke-miterlimit:10;" x1="77.772" y1="421.019" x2="207.314" y2="300.211"/>
			
				<line style="clip-path:url(#SVGID_00000030488142393940067500000004837405674263709058_);fill:none;stroke:#FFFFFF;stroke-width:1.3389;stroke-miterlimit:10;" x1="83.688" y1="427.363" x2="213.23" y2="306.554"/>
			
				<line style="clip-path:url(#SVGID_00000030488142393940067500000004837405674263709058_);fill:none;stroke:#FFFFFF;stroke-width:1.3389;stroke-miterlimit:10;" x1="89.604" y1="433.707" x2="219.146" y2="312.898"/>
			
				<line style="clip-path:url(#SVGID_00000030488142393940067500000004837405674263709058_);fill:none;stroke:#FFFFFF;stroke-width:1.3389;stroke-miterlimit:10;" x1="95.52" y1="440.05" x2="225.062" y2="319.241"/>
			
				<line style="clip-path:url(#SVGID_00000030488142393940067500000004837405674263709058_);fill:none;stroke:#FFFFFF;stroke-width:1.3389;stroke-miterlimit:10;" x1="101.436" y1="446.394" x2="230.978" y2="325.585"/>
			
				<line style="clip-path:url(#SVGID_00000030488142393940067500000004837405674263709058_);fill:none;stroke:#FFFFFF;stroke-width:1.3389;stroke-miterlimit:10;" x1="107.352" y1="452.737" x2="236.894" y2="331.928"/>
			
				<line style="clip-path:url(#SVGID_00000030488142393940067500000004837405674263709058_);fill:none;stroke:#FFFFFF;stroke-width:1.3389;stroke-miterlimit:10;" x1="113.268" y1="459.081" x2="242.81" y2="338.272"/>
			
				<line style="clip-path:url(#SVGID_00000030488142393940067500000004837405674263709058_);fill:none;stroke:#FFFFFF;stroke-width:1.3389;stroke-miterlimit:10;" x1="119.184" y1="465.424" x2="248.725" y2="344.615"/>
		</g>
		<polygon style="clip-path:url(#SVGID_00000129205572502258757390000009620218818877857930_);fill:#FDFCFB;" points="
			438.212,61.953 453.588,115.447 505.671,100.476 		"/>
		
			<polygon style="clip-path:url(#SVGID_00000129205572502258757390000009620218818877857930_);fill:none;stroke:#290C5F;stroke-width:2;stroke-miterlimit:10;" points="
			435.143,69.645 450.52,123.139 502.603,108.168 		"/>
		
			<circle style="clip-path:url(#SVGID_00000129205572502258757390000009620218818877857930_);fill:none;stroke:#290C5F;stroke-width:2;stroke-miterlimit:10;" cx="624.584" cy="395.559" r="21.136"/>
		<g style="clip-path:url(#SVGID_00000129205572502258757390000009620218818877857930_);">
			<polyline style="fill:none;stroke:#FDFCFB;stroke-width:5;stroke-miterlimit:10;" points="49.347,228.551 66.049,242.705 
				82.758,228.551 99.467,242.705 116.179,228.551 132.891,242.705 			"/>
		</g>
		<g style="clip-path:url(#SVGID_00000129205572502258757390000009620218818877857930_);">
			<polyline style="fill:none;stroke:#290C5F;stroke-width:2;stroke-miterlimit:10;" points="52.09,237.241 68.793,251.395 
				85.501,237.241 102.21,251.395 118.922,237.241 135.634,251.395 			"/>
		</g>
		
			<ellipse transform="matrix(0.7071 -0.7071 0.7071 0.7071 16.4733 217.1706)" style="clip-path:url(#SVGID_00000129205572502258757390000009620218818877857930_);fill:none;stroke:#290C5F;stroke-width:3;stroke-linecap:round;stroke-miterlimit:10;stroke-dasharray:0,8;" cx="270.385" cy="88.7" rx="63.377" ry="63.377"/>
		<g style="clip-path:url(#SVGID_00000129205572502258757390000009620218818877857930_);">
			<g>
				<path style="fill:#95BFFD;" d="M124.38,450.139c16.267,0,29.5,13.234,29.5,29.5c0,16.267-13.234,29.501-29.5,29.501
					c-16.267,0-29.5-13.234-29.5-29.501C94.88,463.373,108.113,450.139,124.38,450.139 M124.38,438.139
					c-22.92,0-41.5,18.58-41.5,41.5c0,22.92,18.58,41.5,41.5,41.5c22.92,0,41.5-18.58,41.5-41.5
					C165.88,456.72,147.3,438.139,124.38,438.139L124.38,438.139z"/>
			</g>
			<circle style="fill:none;stroke:#290C5F;stroke-width:2;stroke-miterlimit:10;" cx="125.899" cy="485.393" r="41.5"/>
		</g>
		<g style="clip-path:url(#SVGID_00000129205572502258757390000009620218818877857930_);">
			<path style="fill:#FFFFFF;" d="M619.736,373.756c7.795,0,14.136,6.341,14.136,14.136c0,7.795-6.341,14.136-14.136,14.136
				c-7.795,0-14.136-6.341-14.136-14.136C605.6,380.097,611.942,373.756,619.736,373.756 M619.736,366.756
				c-11.673,0-21.136,9.463-21.136,21.136c0,11.673,9.463,21.136,21.136,21.136s21.136-9.463,21.136-21.136
				C640.872,376.219,631.409,366.756,619.736,366.756L619.736,366.756z"/>
		</g>
		<g style="clip-path:url(#SVGID_00000129205572502258757390000009620218818877857930_);">
			<polygon style="fill:#95BFFD;" points="634.107,233.954 598.921,243.382 624.679,269.14 634.107,233.954 598.921,243.382 
				624.679,269.14 			"/>
			<polygon style="fill:none;stroke:#290C5F;stroke-width:2;stroke-miterlimit:10;" points="626.15,241.911 590.964,251.339 
				616.722,277.097 626.15,241.911 590.964,251.339 616.722,277.097 			"/>
		</g>
		<path style="clip-path:url(#SVGID_00000129205572502258757390000009620218818877857930_);fill:#FDFCFB;" d="M699.603,238.846
			c0,1.693-1.372,3.065-3.065,3.065c-1.693,0-3.065-1.372-3.065-3.065c0-1.693,1.372-3.065,3.065-3.065
			C698.231,235.781,699.603,237.154,699.603,238.846z"/>
		
			<circle style="clip-path:url(#SVGID_00000129205572502258757390000009620218818877857930_);fill:#FDFCFB;" cx="188.636" cy="267.162" r="9.636"/>
	</g>
</g>
</svg>
